<svg
      viewBox="0 0 162 162"
      fill="none"
      xmlns="http://www.w3.org/2000/svg"
      aria-label="Tacto Logo"
    >
      <path
        d="M80.9894 0C81.8147 -3.60707e-08 82.4838 0.668647 82.4839 1.49381V40.0757C82.4839 61.8492 100.135 79.5001 121.908 79.5001H160.5C161.326 79.5003 161.994 80.1694 161.994 80.9945C161.994 81.8196 161.326 82.4882 160.5 82.4884H121.908C100.135 82.4884 82.4839 100.139 82.4839 121.913V160.506C82.4839 161.331 81.8147 162 80.9894 162C80.1642 162 79.495 161.331 79.495 160.506V121.913C79.495 100.139 61.8441 82.4884 40.0706 82.4884H1.48872C0.663505 82.4884 -0.00561811 81.8197 -0.0057373 80.9945C-0.0057373 80.1693 0.663431 79.5001 1.48872 79.5001H40.0706C61.8441 79.5001 79.495 61.8492 79.495 40.0757V1.49381C79.4951 0.668692 80.1643 7.20679e-05 80.9894 0Z"
        fill="#FF6414"
      />
    </svg>
